<?xml version="1.0" encoding="UTF-8" standalone="no"?>
<!DOCTYPE svg PUBLIC "-//W3C//DTD SVG 1.1//EN"
 "http://www.w3.org/Graphics/SVG/1.1/DTD/svg11.dtd">
<!-- Generated by graphviz version 2.43.0 (0)
 -->
<!-- Title: qemu virtio&#45;gpu deps Pages: 1 -->
<svg width="471pt" height="949pt"
 viewBox="0.00 0.00 470.68 949.00" xmlns="http://www.w3.org/2000/svg" xmlns:xlink="http://www.w3.org/1999/xlink">
<g id="graph0" class="graph" transform="scale(1 1) rotate(0) translate(4 945)">
<title>qemu virtio&#45;gpu deps</title>
<polygon fill="white" stroke="transparent" points="-4,4 -4,-945 466.68,-945 466.68,4 -4,4"/>
<text text-anchor="middle" x="231.34" y="-925.8" font-family="Times,serif" font-size="14.00">qemu virtio&#45;gpu deps</text>
<!-- qemu:virtio&#45;gpu&#45;virgl -->
<g id="node1" class="node">
<title>qemu:virtio&#45;gpu&#45;virgl</title>
<polygon fill="#e8f6e8" stroke="black" points="100.5,-161 20.5,-161 20.5,-125 100.5,-125 100.5,-161"/>
<text text-anchor="middle" x="60.5" y="-140.5" font-family="Times,serif" font-size="10.00">virtio&#45;gpu&#45;virgl</text>
</g>
<!-- qemu:virtio&#45;gpu&#45;base -->
<g id="node6" class="node">
<title>qemu:virtio&#45;gpu&#45;base</title>
<polygon fill="#e8f6e8" stroke="black" points="400.34,-321 321.34,-321 321.34,-285 400.34,-285 400.34,-321"/>
<text text-anchor="middle" x="360.84" y="-300.5" font-family="Times,serif" font-size="10.00">virtio&#45;gpu&#45;base</text>
</g>
<!-- qemu:virtio&#45;gpu&#45;virgl&#45;&gt;qemu:virtio&#45;gpu&#45;base -->
<g id="edge13" class="edge">
<title>qemu:virtio&#45;gpu&#45;virgl&#45;&gt;qemu:virtio&#45;gpu&#45;base</title>
<path fill="none" stroke="#3b6fb6" d="M90.52,-161.18C104.74,-169.55 122.36,-179.13 139,-186 182.56,-204 198.71,-194.2 241,-215 275.21,-231.83 309.71,-258.74 332.66,-278.38"/>
<polygon fill="#3b6fb6" stroke="#3b6fb6" points="330.44,-281.08 340.28,-284.99 335.03,-275.79 330.44,-281.08"/>
<text text-anchor="middle" x="190" y="-218.8" font-family="Times,serif" font-size="14.00">virtio&#45;gpu.h</text>
</g>
<!-- qemu:ext:virglrenderer -->
<g id="node9" class="node">
<title>qemu:ext:virglrenderer</title>
<ellipse fill="#e8f6e8" stroke="black" cx="360.84" cy="-151" rx="40.74" ry="18"/>
<text text-anchor="middle" x="360.84" y="-148.5" font-family="Times,serif" font-size="10.00">virglrenderer</text>
</g>
<!-- qemu:virtio&#45;gpu&#45;virgl&#45;&gt;qemu:ext:virglrenderer -->
<g id="edge14" class="edge">
<title>qemu:virtio&#45;gpu&#45;virgl&#45;&gt;qemu:ext:virglrenderer</title>
<path fill="none" stroke="#3b6fb6" d="M100.83,-136.93C113.03,-135.32 126.54,-133.8 139,-133 184.24,-130.09 195.79,-129.6 241,-133 264.98,-134.81 291.45,-138.63 313.32,-142.3"/>
<polygon fill="#3b6fb6" stroke="#3b6fb6" points="312.88,-145.77 323.33,-144.02 314.07,-138.87 312.88,-145.77"/>
<text text-anchor="middle" x="190" y="-136.8" font-family="Times,serif" font-size="14.00">virglrenderer.h</text>
</g>
<!-- qemu:ext:virtio&#45;core -->
<g id="node15" class="node">
<title>qemu:ext:virtio&#45;core</title>
<ellipse fill="#e8f6e8" stroke="black" cx="360.84" cy="-588" rx="34.96" ry="18"/>
<text text-anchor="middle" x="360.84" y="-585.5" font-family="Times,serif" font-size="10.00">virtio&#45;core</text>
</g>
<!-- qemu:virtio&#45;gpu&#45;virgl&#45;&gt;qemu:ext:virtio&#45;core -->
<g id="edge12" class="edge">
<title>qemu:virtio&#45;gpu&#45;virgl&#45;&gt;qemu:ext:virtio&#45;core</title>
<path fill="none" stroke="#3b6fb6" d="M92.78,-161.22C103.61,-169.22 114.63,-179.63 121,-192 147.51,-243.49 100.47,-408.76 139,-452 169.68,-486.43 200.12,-449.67 241,-471 283.39,-493.11 320.54,-535.38 341.57,-562.6"/>
<polygon fill="#3b6fb6" stroke="#3b6fb6" points="339,-565 347.82,-570.86 344.58,-560.78 339,-565"/>
<text text-anchor="middle" x="190" y="-474.8" font-family="Times,serif" font-size="14.00">virtio.h</text>
</g>
<!-- qemu:feat:virgl+opengl -->
<g id="node18" class="node">
<title>qemu:feat:virgl+opengl</title>
<ellipse fill="#e8f6e8" stroke="black" cx="360.84" cy="-56" rx="41.59" ry="18"/>
<text text-anchor="middle" x="360.84" y="-53.5" font-family="Times,serif" font-size="10.00">virgl+opengl</text>
</g>
<!-- qemu:virtio&#45;gpu&#45;virgl&#45;&gt;qemu:feat:virgl+opengl -->
<g id="edge18" class="edge">
<title>qemu:virtio&#45;gpu&#45;virgl&#45;&gt;qemu:feat:virgl+opengl</title>
<path fill="none" stroke="#888888" stroke-dasharray="5,2" d="M71.53,-124.76C84.15,-103.91 108,-70.88 139,-57 194.96,-31.95 267.17,-37.8 313.5,-45.73"/>
<polygon fill="#888888" stroke="#888888" points="313.09,-49.21 323.55,-47.55 314.34,-42.32 313.09,-49.21"/>
<text text-anchor="middle" x="190" y="-60.8" font-family="Times,serif" font-size="14.00">gated&#45;by</text>
</g>
<!-- qemu:virtio&#45;gpu&#45;rutabaga -->
<g id="node2" class="node">
<title>qemu:virtio&#45;gpu&#45;rutabaga</title>
<polygon fill="#e8f6e8" stroke="black" points="108.5,-805 12.5,-805 12.5,-769 108.5,-769 108.5,-805"/>
<text text-anchor="middle" x="60.5" y="-784.5" font-family="Times,serif" font-size="10.00">virtio&#45;gpu&#45;rutabaga</text>
</g>
<!-- qemu:virtio&#45;gpu&#45;rutabaga&#45;&gt;qemu:virtio&#45;gpu&#45;base -->
<g id="edge8" class="edge">
<title>qemu:virtio&#45;gpu&#45;rutabaga&#45;&gt;qemu:virtio&#45;gpu&#45;base</title>
<path fill="none" stroke="#3b6fb6" d="M99.63,-768.99C108.06,-763.18 115.97,-755.88 121,-747 140.18,-713.11 113.63,-426.54 139,-397 169.15,-361.89 197.97,-393.04 241,-376 272.34,-363.59 304.74,-343.09 327.78,-326.97"/>
<polygon fill="#3b6fb6" stroke="#3b6fb6" points="330.01,-329.68 336.13,-321.03 325.95,-323.97 330.01,-329.68"/>
<text text-anchor="middle" x="190" y="-400.8" font-family="Times,serif" font-size="14.00">virtio&#45;gpu.h</text>
</g>
<!-- qemu:feat:rutabaga -->
<g id="node11" class="node">
<title>qemu:feat:rutabaga</title>
<ellipse fill="#e8f6e8" stroke="black" cx="360.84" cy="-889" rx="30.72" ry="18"/>
<text text-anchor="middle" x="360.84" y="-886.5" font-family="Times,serif" font-size="10.00">rutabaga</text>
</g>
<!-- qemu:virtio&#45;gpu&#45;rutabaga&#45;&gt;qemu:feat:rutabaga -->
<g id="edge19" class="edge">
<title>qemu:virtio&#45;gpu&#45;rutabaga&#45;&gt;qemu:feat:rutabaga</title>
<path fill="none" stroke="#888888" stroke-dasharray="5,2" d="M88.54,-805.16C103.01,-814.24 121.44,-824.8 139,-832 200.51,-857.24 276.35,-873.89 321.25,-882.36"/>
<polygon fill="#888888" stroke="#888888" points="320.68,-885.82 331.15,-884.19 321.96,-878.94 320.68,-885.82"/>
<text text-anchor="middle" x="190" y="-867.8" font-family="Times,serif" font-size="14.00">gated&#45;by</text>
</g>
<!-- qemu:ext:rutabaga -->
<g id="node13" class="node">
<title>qemu:ext:rutabaga</title>
<ellipse fill="#e8f6e8" stroke="black" cx="360.84" cy="-832" rx="30.72" ry="18"/>
<text text-anchor="middle" x="360.84" y="-829.5" font-family="Times,serif" font-size="10.00">rutabaga</text>
</g>
<!-- qemu:virtio&#45;gpu&#45;rutabaga&#45;&gt;qemu:ext:rutabaga -->
<g id="edge9" class="edge">
<title>qemu:virtio&#45;gpu&#45;rutabaga&#45;&gt;qemu:ext:rutabaga</title>
<path fill="none" stroke="#3b6fb6" d="M108.77,-794.13C167.43,-802.98 266.35,-817.9 320.86,-826.12"/>
<polygon fill="#3b6fb6" stroke="#3b6fb6" points="320.42,-829.59 330.83,-827.62 321.46,-822.67 320.42,-829.59"/>
<text text-anchor="middle" x="190" y="-816.8" font-family="Times,serif" font-size="14.00">rutabaga_gfx_ffi.h</text>
</g>
<!-- qemu:virtio&#45;gpu&#45;rutabaga&#45;&gt;qemu:ext:virtio&#45;core -->
<g id="edge7" class="edge">
<title>qemu:virtio&#45;gpu&#45;rutabaga&#45;&gt;qemu:ext:virtio&#45;core</title>
<path fill="none" stroke="#3b6fb6" d="M96.28,-768.83C105.26,-762.84 114.29,-755.5 121,-747 135.13,-729.13 121.55,-713.64 139,-699 174.33,-669.36 198.92,-698.87 241,-680 278.27,-663.29 314.4,-632.61 336.84,-611.3"/>
<polygon fill="#3b6fb6" stroke="#3b6fb6" points="339.44,-613.66 344.19,-604.19 334.57,-608.63 339.44,-613.66"/>
<text text-anchor="middle" x="190" y="-702.8" font-family="Times,serif" font-size="14.00">virtio.h</text>
</g>
<!-- qemu:virtio&#45;vga&#45;gl -->
<g id="node3" class="node">
<title>qemu:virtio&#45;vga&#45;gl</title>
<polygon fill="#e8f6e8" stroke="black" points="94.5,-36 26.5,-36 26.5,0 94.5,0 94.5,-36"/>
<text text-anchor="middle" x="60.5" y="-15.5" font-family="Times,serif" font-size="10.00">virtio&#45;vga&#45;gl</text>
</g>
<!-- qemu:virtio&#45;vga&#45;gl&#45;&gt;qemu:feat:virgl+opengl -->
<g id="edge23" class="edge">
<title>qemu:virtio&#45;vga&#45;gl&#45;&gt;qemu:feat:virgl+opengl</title>
<path fill="none" stroke="#888888" stroke-dasharray="5,2" d="M94.82,-15.26C131.03,-12.97 190.49,-11.18 241,-19 267.97,-23.18 297.26,-32.24 320.01,-40.35"/>
<polygon fill="#888888" stroke="#888888" points="319.06,-43.73 329.65,-43.87 321.46,-37.15 319.06,-43.73"/>
<text text-anchor="middle" x="190" y="-22.8" font-family="Times,serif" font-size="14.00">gated&#45;by</text>
</g>
<!-- qemu:feat:CONFIG_VIRTIO_PCI+rutabaga -->
<g id="node4" class="node">
<title>qemu:feat:CONFIG_VIRTIO_PCI+rutabaga</title>
<ellipse fill="#e8f6e8" stroke="black" cx="360.84" cy="-436" rx="90.81" ry="18"/>
<text text-anchor="middle" x="360.84" y="-433.5" font-family="Times,serif" font-size="10.00">CONFIG_VIRTIO_PCI+rutabaga</text>
</g>
<!-- qemu:virtio&#45;gpu&#45;pci&#45;gl -->
<g id="node5" class="node">
<title>qemu:virtio&#45;gpu&#45;pci&#45;gl</title>
<polygon fill="#e8f6e8" stroke="black" points="103,-738 18,-738 18,-702 103,-702 103,-738"/>
<text text-anchor="middle" x="60.5" y="-717.5" font-family="Times,serif" font-size="10.00">virtio&#45;gpu&#45;pci&#45;gl</text>
</g>
<!-- qemu:feat:CONFIG_VIRTIO_PCI+virgl+opengl -->
<g id="node7" class="node">
<title>qemu:feat:CONFIG_VIRTIO_PCI+virgl+opengl</title>
<ellipse fill="#e8f6e8" stroke="black" cx="360.84" cy="-778" rx="101.68" ry="18"/>
<text text-anchor="middle" x="360.84" y="-775.5" font-family="Times,serif" font-size="10.00">CONFIG_VIRTIO_PCI+virgl+opengl</text>
</g>
<!-- qemu:virtio&#45;gpu&#45;pci&#45;gl&#45;&gt;qemu:feat:CONFIG_VIRTIO_PCI+virgl+opengl -->
<g id="edge21" class="edge">
<title>qemu:virtio&#45;gpu&#45;pci&#45;gl&#45;&gt;qemu:feat:CONFIG_VIRTIO_PCI+virgl+opengl</title>
<path fill="none" stroke="#888888" stroke-dasharray="5,2" d="M94.14,-738.13C107.64,-744.83 123.69,-751.81 139,-756 174.5,-765.71 214.25,-771.24 250.14,-774.35"/>
<polygon fill="#888888" stroke="#888888" points="249.91,-777.85 260.16,-775.17 250.47,-770.87 249.91,-777.85"/>
<text text-anchor="middle" x="190" y="-776.8" font-family="Times,serif" font-size="14.00">gated&#45;by</text>
</g>
<!-- qemu:virtio&#45;gpu&#45;pci&#45;gl&#45;&gt;qemu:ext:virtio&#45;core -->
<g id="edge4" class="edge">
<title>qemu:virtio&#45;gpu&#45;pci&#45;gl&#45;&gt;qemu:ext:virtio&#45;core</title>
<path fill="none" stroke="#3b6fb6" d="M82.14,-701.89C97.01,-689.75 118.06,-674.34 139,-665 181.44,-646.07 196.95,-656.8 241,-642 270.83,-631.98 303.27,-616.94 326.7,-605.27"/>
<polygon fill="#3b6fb6" stroke="#3b6fb6" points="328.49,-608.29 335.85,-600.67 325.34,-602.04 328.49,-608.29"/>
<text text-anchor="middle" x="190" y="-668.8" font-family="Times,serif" font-size="14.00">virtio.h</text>
</g>
<!-- qemu:virtio&#45;gpu&#45;pci&#45;rutabaga -->
<g id="node8" class="node">
<title>qemu:virtio&#45;gpu&#45;pci&#45;rutabaga</title>
<polygon fill="#e8f6e8" stroke="black" points="116.5,-568 4.5,-568 4.5,-532 116.5,-532 116.5,-568"/>
<text text-anchor="middle" x="60.5" y="-547.5" font-family="Times,serif" font-size="10.00">virtio&#45;gpu&#45;pci&#45;rutabaga</text>
</g>
<!-- qemu:virtio&#45;gpu&#45;pci&#45;rutabaga&#45;&gt;qemu:feat:CONFIG_VIRTIO_PCI+rutabaga -->
<g id="edge22" class="edge">
<title>qemu:virtio&#45;gpu&#45;pci&#45;rutabaga&#45;&gt;qemu:feat:CONFIG_VIRTIO_PCI+rutabaga</title>
<path fill="none" stroke="#888888" stroke-dasharray="5,2" d="M71.33,-531.6C87.4,-502.31 119.45,-447.35 139,-437 185.62,-412.31 245.92,-413.87 291.73,-420.6"/>
<polygon fill="#888888" stroke="#888888" points="291.44,-424.09 301.86,-422.2 292.53,-417.18 291.44,-424.09"/>
<text text-anchor="middle" x="190" y="-440.8" font-family="Times,serif" font-size="14.00">gated&#45;by</text>
</g>
<!-- qemu:virtio&#45;gpu&#45;pci&#45;rutabaga&#45;&gt;qemu:ext:virtio&#45;core -->
<g id="edge5" class="edge">
<title>qemu:virtio&#45;gpu&#45;pci&#45;rutabaga&#45;&gt;qemu:ext:virtio&#45;core</title>
<path fill="none" stroke="#3b6fb6" d="M116.83,-562.15C124.26,-563.57 131.8,-564.9 139,-566 200,-575.31 271.11,-581.58 315.81,-584.97"/>
<polygon fill="#3b6fb6" stroke="#3b6fb6" points="315.8,-588.48 326.03,-585.73 316.32,-581.5 315.8,-588.48"/>
<text text-anchor="middle" x="190" y="-580.8" font-family="Times,serif" font-size="14.00">virtio.h</text>
</g>
<!-- qemu:virtio&#45;gpu&#45;pci -->
<g id="node10" class="node">
<title>qemu:virtio&#45;gpu&#45;pci</title>
<polygon fill="#e8f6e8" stroke="black" points="97.5,-658 23.5,-658 23.5,-622 97.5,-622 97.5,-658"/>
<text text-anchor="middle" x="60.5" y="-637.5" font-family="Times,serif" font-size="10.00">virtio&#45;gpu&#45;pci</text>
</g>
<!-- qemu:virtio&#45;gpu&#45;pci&#45;&gt;qemu:ext:virtio&#45;core -->
<g id="edge6" class="edge">
<title>qemu:virtio&#45;gpu&#45;pci&#45;&gt;qemu:ext:virtio&#45;core</title>
<path fill="none" stroke="#3b6fb6" d="M97.78,-633.68C153.16,-624.02 258.51,-605.66 317.37,-595.4"/>
<polygon fill="#3b6fb6" stroke="#3b6fb6" points="318.2,-598.81 327.45,-593.65 316.99,-591.92 318.2,-598.81"/>
<text text-anchor="middle" x="190" y="-629.8" font-family="Times,serif" font-size="14.00">virtio.h</text>
</g>
<!-- qemu:feat:CONFIG_VIRTIO_PCI -->
<g id="node20" class="node">
<title>qemu:feat:CONFIG_VIRTIO_PCI</title>
<ellipse fill="#e8f6e8" stroke="black" cx="360.84" cy="-724" rx="66.54" ry="18"/>
<text text-anchor="middle" x="360.84" y="-721.5" font-family="Times,serif" font-size="10.00">CONFIG_VIRTIO_PCI</text>
</g>
<!-- qemu:virtio&#45;gpu&#45;pci&#45;&gt;qemu:feat:CONFIG_VIRTIO_PCI -->
<g id="edge20" class="edge">
<title>qemu:virtio&#45;gpu&#45;pci&#45;&gt;qemu:feat:CONFIG_VIRTIO_PCI</title>
<path fill="none" stroke="#888888" stroke-dasharray="5,2" d="M84.05,-658.06C95.66,-667.84 109.7,-680.46 121,-693 130.17,-703.17 126.9,-711.59 139,-718 163.68,-731.07 231.73,-731.21 285.83,-728.9"/>
<polygon fill="#888888" stroke="#888888" points="286.28,-732.39 296.11,-728.43 285.95,-725.39 286.28,-732.39"/>
<text text-anchor="middle" x="190" y="-733.8" font-family="Times,serif" font-size="14.00">gated&#45;by</text>
</g>
<!-- qemu:virtio&#45;gpu&#45;udmabuf -->
<g id="node12" class="node">
<title>qemu:virtio&#45;gpu&#45;udmabuf</title>
<polygon fill="#e8f6e8" stroke="black" points="109,-297 12,-297 12,-261 109,-261 109,-297"/>
<text text-anchor="middle" x="60.5" y="-276.5" font-family="Times,serif" font-size="10.00">virtio&#45;gpu&#45;udmabuf</text>
</g>
<!-- qemu:virtio&#45;gpu&#45;udmabuf&#45;&gt;qemu:virtio&#45;gpu&#45;base -->
<g id="edge11" class="edge">
<title>qemu:virtio&#45;gpu&#45;udmabuf&#45;&gt;qemu:virtio&#45;gpu&#45;base</title>
<path fill="none" stroke="#3b6fb6" d="M109.21,-279.08C145.44,-279.51 196.44,-280.9 241,-285 264.23,-287.14 289.83,-290.84 311.31,-294.34"/>
<polygon fill="#3b6fb6" stroke="#3b6fb6" points="310.74,-297.79 321.18,-295.97 311.88,-290.88 310.74,-297.79"/>
<text text-anchor="middle" x="190" y="-288.8" font-family="Times,serif" font-size="14.00">virtio&#45;gpu.h</text>
</g>
<!-- qemu:virtio&#45;gpu&#45;udmabuf&#45;stubs -->
<g id="node14" class="node">
<title>qemu:virtio&#45;gpu&#45;udmabuf&#45;stubs</title>
<polygon fill="#e8f6e8" stroke="black" points="121,-351 0,-351 0,-315 121,-315 121,-351"/>
<text text-anchor="middle" x="60.5" y="-330.5" font-family="Times,serif" font-size="10.00">virtio&#45;gpu&#45;udmabuf&#45;stubs</text>
</g>
<!-- qemu:virtio&#45;gpu&#45;udmabuf&#45;stubs&#45;&gt;qemu:virtio&#45;gpu&#45;base -->
<g id="edge10" class="edge">
<title>qemu:virtio&#45;gpu&#45;udmabuf&#45;stubs&#45;&gt;qemu:virtio&#45;gpu&#45;base</title>
<path fill="none" stroke="#3b6fb6" d="M121.13,-325.07C127.16,-324.34 133.2,-323.64 139,-323 198.11,-316.51 266.29,-310.57 311.07,-306.88"/>
<polygon fill="#3b6fb6" stroke="#3b6fb6" points="311.42,-310.36 321.1,-306.06 310.85,-303.39 311.42,-310.36"/>
<text text-anchor="middle" x="190" y="-326.8" font-family="Times,serif" font-size="14.00">virtio&#45;gpu.h</text>
</g>
<!-- qemu:virtio&#45;vga&#45;rutabaga -->
<g id="node16" class="node">
<title>qemu:virtio&#45;vga&#45;rutabaga</title>
<polygon fill="#e8f6e8" stroke="black" points="108,-918 13,-918 13,-882 108,-882 108,-918"/>
<text text-anchor="middle" x="60.5" y="-897.5" font-family="Times,serif" font-size="10.00">virtio&#45;vga&#45;rutabaga</text>
</g>
<!-- qemu:virtio&#45;vga&#45;rutabaga&#45;&gt;qemu:feat:rutabaga -->
<g id="edge24" class="edge">
<title>qemu:virtio&#45;vga&#45;rutabaga&#45;&gt;qemu:feat:rutabaga</title>
<path fill="none" stroke="#888888" stroke-dasharray="5,2" d="M108.12,-898.28C166.47,-896.13 265.39,-892.48 320.25,-890.46"/>
<polygon fill="#888888" stroke="#888888" points="320.42,-893.96 330.28,-890.09 320.16,-886.96 320.42,-893.96"/>
<text text-anchor="middle" x="190" y="-900.8" font-family="Times,serif" font-size="14.00">gated&#45;by</text>
</g>
<!-- qemu:virtio&#45;gpu&#45;gl -->
<g id="node17" class="node">
<title>qemu:virtio&#45;gpu&#45;gl</title>
<polygon fill="#e8f6e8" stroke="black" points="95,-237 26,-237 26,-201 95,-201 95,-237"/>
<text text-anchor="middle" x="60.5" y="-216.5" font-family="Times,serif" font-size="10.00">virtio&#45;gpu&#45;gl</text>
</g>
<!-- qemu:virtio&#45;gpu&#45;gl&#45;&gt;qemu:virtio&#45;gpu&#45;base -->
<g id="edge2" class="edge">
<title>qemu:virtio&#45;gpu&#45;gl&#45;&gt;qemu:virtio&#45;gpu&#45;base</title>
<path fill="none" stroke="#3b6fb6" d="M95.23,-225.42C131.55,-232.63 190.86,-245.26 241,-260 264.55,-266.92 290.21,-276 311.64,-284.04"/>
<polygon fill="#3b6fb6" stroke="#3b6fb6" points="310.57,-287.38 321.16,-287.64 313.05,-280.83 310.57,-287.38"/>
<text text-anchor="middle" x="190" y="-263.8" font-family="Times,serif" font-size="14.00">virtio&#45;gpu.h</text>
</g>
<!-- qemu:virtio&#45;gpu&#45;gl&#45;&gt;qemu:ext:virglrenderer -->
<g id="edge3" class="edge">
<title>qemu:virtio&#45;gpu&#45;gl&#45;&gt;qemu:ext:virglrenderer</title>
<path fill="none" stroke="#3b6fb6" d="M84.49,-200.78C99.2,-190.17 119.19,-177.62 139,-171 195.4,-152.16 264.14,-148.77 309.8,-149.05"/>
<polygon fill="#3b6fb6" stroke="#3b6fb6" points="309.98,-152.55 320.03,-149.18 310.07,-145.55 309.98,-152.55"/>
<text text-anchor="middle" x="190" y="-174.8" font-family="Times,serif" font-size="14.00">virglrenderer.h</text>
</g>
<!-- qemu:virtio&#45;gpu&#45;gl&#45;&gt;qemu:ext:virtio&#45;core -->
<g id="edge1" class="edge">
<title>qemu:virtio&#45;gpu&#45;gl&#45;&gt;qemu:ext:virtio&#45;core</title>
<path fill="none" stroke="#3b6fb6" d="M95,-230.37C104.98,-235.43 114.88,-242.45 121,-252 149.62,-296.66 103.59,-450.51 139,-490 169.79,-524.33 198.27,-491.66 241,-509 275.76,-523.1 310.97,-548.16 333.94,-566.28"/>
<polygon fill="#3b6fb6" stroke="#3b6fb6" points="331.84,-569.08 341.83,-572.6 336.22,-563.62 331.84,-569.08"/>
<text text-anchor="middle" x="190" y="-512.8" font-family="Times,serif" font-size="14.00">virtio.h</text>
</g>
<!-- qemu:virtio&#45;gpu&#45;gl&#45;&gt;qemu:feat:virgl+opengl -->
<g id="edge17" class="edge">
<title>qemu:virtio&#45;gpu&#45;gl&#45;&gt;qemu:feat:virgl+opengl</title>
<path fill="none" stroke="#888888" stroke-dasharray="5,2" d="M90.12,-200.85C101.13,-192.62 112.97,-182.02 121,-170 136.23,-147.2 119.12,-129.87 139,-111 163.4,-87.84 253.04,-71.16 310.34,-62.58"/>
<polygon fill="#888888" stroke="#888888" points="310.9,-66.04 320.29,-61.12 309.89,-59.11 310.9,-66.04"/>
<text text-anchor="middle" x="190" y="-114.8" font-family="Times,serif" font-size="14.00">gated&#45;by</text>
</g>
<!-- qemu:virtio&#45;gpu -->
<g id="node19" class="node">
<title>qemu:virtio&#45;gpu</title>
<polygon fill="#e8f6e8" stroke="black" points="89.5,-443 31.5,-443 31.5,-407 89.5,-407 89.5,-443"/>
<text text-anchor="middle" x="60.5" y="-422.5" font-family="Times,serif" font-size="10.00">virtio&#45;gpu</text>
</g>
<!-- qemu:virtio&#45;gpu&#45;&gt;qemu:virtio&#45;gpu&#45;base -->
<g id="edge16" class="edge">
<title>qemu:virtio&#45;gpu&#45;&gt;qemu:virtio&#45;gpu&#45;base</title>
<path fill="none" stroke="#3b6fb6" d="M78.57,-406.81C93.23,-392.25 115.66,-372.45 139,-361 180.72,-340.53 196.02,-349.68 241,-338 264.38,-331.93 290.11,-324.45 311.64,-317.96"/>
<polygon fill="#3b6fb6" stroke="#3b6fb6" points="312.66,-321.31 321.21,-315.06 310.63,-314.61 312.66,-321.31"/>
<text text-anchor="middle" x="190" y="-364.8" font-family="Times,serif" font-size="14.00">virtio&#45;gpu.h</text>
</g>
<!-- qemu:virtio&#45;gpu&#45;&gt;qemu:ext:virtio&#45;core -->
<g id="edge15" class="edge">
<title>qemu:virtio&#45;gpu&#45;&gt;qemu:ext:virtio&#45;core</title>
<path fill="none" stroke="#3b6fb6" d="M69.87,-443.21C81.72,-466.81 105.71,-507.37 139,-528 178.19,-552.3 196.42,-535.23 241,-547 268.88,-554.36 299.64,-565.05 322.88,-573.66"/>
<polygon fill="#3b6fb6" stroke="#3b6fb6" points="321.75,-576.98 332.34,-577.21 324.21,-570.42 321.75,-576.98"/>
<text text-anchor="middle" x="190" y="-550.8" font-family="Times,serif" font-size="14.00">virtio.h</text>
</g>
</g>
</svg>
