<?xml version="1.0" encoding="UTF-8" standalone="no"?>
<!DOCTYPE svg PUBLIC "-//W3C//DTD SVG 1.1//EN"
 "http://www.w3.org/Graphics/SVG/1.1/DTD/svg11.dtd">
<!-- Generated by graphviz version 2.43.0 (0)
 -->
<!-- Title: View C: The Invariant Protocol Spine Pages: 1 -->
<svg width="1334pt" height="313pt"
 viewBox="0.00 0.00 1333.95 313.00" xmlns="http://www.w3.org/2000/svg" xmlns:xlink="http://www.w3.org/1999/xlink">
<g id="graph0" class="graph" transform="scale(1 1) rotate(0) translate(4 309)">
<title>View C: The Invariant Protocol Spine</title>
<polygon fill="white" stroke="transparent" points="-4,4 -4,-309 1329.95,-309 1329.95,4 -4,4"/>
<text text-anchor="middle" x="662.98" y="-289.8" font-family="Times,serif" font-size="14.00">View C: The Invariant Protocol Spine</text>
<g id="clust1" class="cluster">
<title>cluster_linux</title>
<path fill="none" stroke="#bbbbbb" d="M452.5,-145C452.5,-145 544.5,-145 544.5,-145 550.5,-145 556.5,-151 556.5,-157 556.5,-157 556.5,-262 556.5,-262 556.5,-268 550.5,-274 544.5,-274 544.5,-274 452.5,-274 452.5,-274 446.5,-274 440.5,-268 440.5,-262 440.5,-262 440.5,-157 440.5,-157 440.5,-151 446.5,-145 452.5,-145"/>
<text text-anchor="middle" x="498.5" y="-258.8" font-family="Times,serif" font-size="14.00">Linux DRM guest</text>
</g>
<g id="clust2" class="cluster">
<title>cluster_vogue</title>
<path fill="none" stroke="#bbbbbb" d="M20,-8C20,-8 535.5,-8 535.5,-8 541.5,-8 547.5,-14 547.5,-20 547.5,-20 547.5,-125 547.5,-125 547.5,-131 541.5,-137 535.5,-137 535.5,-137 20,-137 20,-137 14,-137 8,-131 8,-125 8,-125 8,-20 8,-20 8,-14 14,-8 20,-8"/>
<text text-anchor="middle" x="277.75" y="-121.8" font-family="Times,serif" font-size="14.00">VOGUE (Unikraft) guest</text>
</g>
<g id="clust3" class="cluster">
<title>cluster_seam</title>
<path fill="none" stroke="#bbbbbb" d="M730,-46C730,-46 932.72,-46 932.72,-46 938.72,-46 944.72,-52 944.72,-58 944.72,-58 944.72,-163 944.72,-163 944.72,-169 938.72,-175 932.72,-175 932.72,-175 730,-175 730,-175 724,-175 718,-169 718,-163 718,-163 718,-58 718,-58 718,-52 724,-46 730,-46"/>
<text text-anchor="middle" x="831.36" y="-159.8" font-family="Times,serif" font-size="14.00">Protocol seam</text>
</g>
<g id="clust4" class="cluster">
<title>cluster_qemu</title>
<path fill="none" stroke="#bbbbbb" d="M1050.72,-46C1050.72,-46 1305.95,-46 1305.95,-46 1311.95,-46 1317.95,-52 1317.95,-58 1317.95,-58 1317.95,-163 1317.95,-163 1317.95,-169 1311.95,-175 1305.95,-175 1305.95,-175 1050.72,-175 1050.72,-175 1044.72,-175 1038.72,-169 1038.72,-163 1038.72,-163 1038.72,-58 1038.72,-58 1038.72,-52 1044.72,-46 1050.72,-46"/>
<text text-anchor="middle" x="1178.33" y="-159.8" font-family="Times,serif" font-size="14.00">QEMU hypervisor</text>
</g>
<!-- linux:virtgpu_vq -->
<g id="node1" class="node">
<title>linux:virtgpu_vq</title>
<polygon fill="#fde2e2" stroke="black" points="529.5,-243 467.5,-243 467.5,-207 529.5,-207 529.5,-243"/>
<text text-anchor="middle" x="498.5" y="-222.5" font-family="Times,serif" font-size="10.00">virtgpu_vq</text>
</g>
<!-- seam:ctrlq -->
<g id="node7" class="node">
<title>seam:ctrlq</title>
<polygon fill="#fff3c4" stroke="black" points="936.57,-126 883.97,-144 778.75,-144 726.14,-126 778.75,-108 883.97,-108 936.57,-126"/>
<text text-anchor="middle" x="831.36" y="-123.5" font-family="Times,serif" font-size="10.00">VirtIO&#45;GPU control/cursor queues</text>
</g>
<!-- linux:virtgpu_vq&#45;&gt;seam:ctrlq -->
<g id="edge6" class="edge">
<title>linux:virtgpu_vq&#45;&gt;seam:ctrlq</title>
<path fill="none" stroke="#c0392b" stroke-width="2.2" d="M529.62,-219.72C570.55,-212.18 645.75,-196.98 708,-177 733.12,-168.94 760.27,-157.87 782.61,-148.11"/>
<polygon fill="#c0392b" stroke="#c0392b" stroke-width="2.2" points="784.13,-151.26 791.86,-144.01 781.3,-144.86 784.13,-151.26"/>
<text text-anchor="middle" x="642" y="-212.8" font-family="Times,serif" font-size="14.00">VIRTIO_GPU_CMD_*</text>
</g>
<!-- linux:virtgpu_submit -->
<g id="node2" class="node">
<title>linux:virtgpu_submit</title>
<polygon fill="#fde2e2" stroke="black" points="538.5,-189 458.5,-189 458.5,-153 538.5,-153 538.5,-189"/>
<text text-anchor="middle" x="498.5" y="-168.5" font-family="Times,serif" font-size="10.00">virtgpu_submit</text>
</g>
<!-- seam:venus&#45;ring -->
<g id="node8" class="node">
<title>seam:venus&#45;ring</title>
<polygon fill="#fff3c4" stroke="black" points="900.52,-72 865.94,-90 796.78,-90 762.19,-72 796.78,-54 865.94,-54 900.52,-72"/>
<text text-anchor="middle" x="831.36" y="-69.5" font-family="Times,serif" font-size="10.00">Venus command ring</text>
</g>
<!-- linux:virtgpu_submit&#45;&gt;seam:venus&#45;ring -->
<g id="edge7" class="edge">
<title>linux:virtgpu_submit&#45;&gt;seam:venus&#45;ring</title>
<path fill="none" stroke="#c0392b" stroke-width="2.2" d="M538.67,-164.35C597.29,-154.25 701.67,-135.62 708,-130 718.82,-120.38 707.38,-108.84 718,-99 729.29,-88.54 743.9,-81.93 758.82,-77.79"/>
<polygon fill="#c0392b" stroke="#c0392b" stroke-width="2.2" points="759.75,-81.17 768.65,-75.42 758.11,-74.36 759.75,-81.17"/>
<text text-anchor="middle" x="642" y="-160.8" font-family="Times,serif" font-size="14.00">EXECBUFFER</text>
</g>
<!-- vogue:libukvirtgpu_drm -->
<g id="node3" class="node">
<title>vogue:libukvirtgpu_drm</title>
<polygon fill="#e2f0fd" stroke="black" points="284.5,-106 195.5,-106 195.5,-70 284.5,-70 284.5,-106"/>
<text text-anchor="middle" x="240" y="-85.5" font-family="Times,serif" font-size="10.00">libukvirtgpu_drm</text>
</g>
<!-- vogue:libukvirtio_gpu -->
<g id="node4" class="node">
<title>vogue:libukvirtio_gpu</title>
<polygon fill="#e2f0fd" stroke="black" points="539.5,-106 457.5,-106 457.5,-70 539.5,-70 539.5,-106"/>
<text text-anchor="middle" x="498.5" y="-85.5" font-family="Times,serif" font-size="10.00">libukvirtio_gpu</text>
</g>
<!-- vogue:libukvirtgpu_drm&#45;&gt;vogue:libukvirtio_gpu -->
<g id="edge3" class="edge">
<title>vogue:libukvirtgpu_drm&#45;&gt;vogue:libukvirtio_gpu</title>
<path fill="none" stroke="#c0392b" stroke-width="2.2" d="M284.51,-88C329.52,-88 399.73,-88 447.12,-88"/>
<polygon fill="#c0392b" stroke="#c0392b" stroke-width="2.2" points="447.16,-91.5 457.16,-88 447.16,-84.5 447.16,-91.5"/>
<text text-anchor="middle" x="363.5" y="-91.8" font-family="Times,serif" font-size="14.00">EXECBUFFER ioctl</text>
</g>
<!-- vogue:libukvirtio_gpu&#45;&gt;seam:ctrlq -->
<g id="edge4" class="edge">
<title>vogue:libukvirtio_gpu&#45;&gt;seam:ctrlq</title>
<path fill="none" stroke="#c0392b" stroke-width="2.2" d="M539.74,-92.62C589.7,-98.36 676.35,-108.31 742.07,-115.86"/>
<polygon fill="#c0392b" stroke="#c0392b" stroke-width="2.2" points="741.68,-119.34 752.02,-117 742.48,-112.38 741.68,-119.34"/>
<text text-anchor="middle" x="642" y="-114.8" font-family="Times,serif" font-size="14.00">VIRTIO_GPU_CMD_*</text>
</g>
<!-- vogue:libukvulkan_venus -->
<g id="node5" class="node">
<title>vogue:libukvulkan_venus</title>
<polygon fill="#e2f0fd" stroke="black" points="288,-52 192,-52 192,-16 288,-16 288,-52"/>
<text text-anchor="middle" x="240" y="-31.5" font-family="Times,serif" font-size="10.00">libukvulkan_venus</text>
</g>
<!-- vogue:libukvulkan_venus&#45;&gt;vogue:libukvirtio_gpu -->
<g id="edge2" class="edge">
<title>vogue:libukvulkan_venus&#45;&gt;vogue:libukvirtio_gpu</title>
<path fill="none" stroke="#c0392b" stroke-width="2.2" d="M288.13,-42.48C324.52,-49.19 376.08,-59.06 421,-69 429.64,-70.91 438.8,-73.07 447.66,-75.23"/>
<polygon fill="#c0392b" stroke="#c0392b" stroke-width="2.2" points="446.94,-78.66 457.49,-77.65 448.62,-71.86 446.94,-78.66"/>
<text text-anchor="middle" x="363.5" y="-72.8" font-family="Times,serif" font-size="14.00">VENUS ring submit</text>
</g>
<!-- vogue:libukvulkan_venus&#45;&gt;seam:venus&#45;ring -->
<g id="edge5" class="edge">
<title>vogue:libukvulkan_venus&#45;&gt;seam:venus&#45;ring</title>
<path fill="none" stroke="#c0392b" stroke-width="2.2" d="M288.04,-34.94C349.98,-36.37 462.25,-39.62 558,-46 628.5,-50.7 709.02,-58.71 764.12,-64.6"/>
<polygon fill="#c0392b" stroke="#c0392b" stroke-width="2.2" points="763.78,-68.09 774.1,-65.68 764.53,-61.13 763.78,-68.09"/>
<text text-anchor="middle" x="498.5" y="-49.8" font-family="Times,serif" font-size="14.00">VK command stream</text>
</g>
<!-- vogue:libvulkan -->
<g id="node6" class="node">
<title>vogue:libvulkan</title>
<polygon fill="#e2f0fd" stroke="black" points="72,-52 16,-52 16,-16 72,-16 72,-52"/>
<text text-anchor="middle" x="44" y="-31.5" font-family="Times,serif" font-size="10.00">libvulkan</text>
</g>
<!-- vogue:libvulkan&#45;&gt;vogue:libukvulkan_venus -->
<g id="edge1" class="edge">
<title>vogue:libvulkan&#45;&gt;vogue:libukvulkan_venus</title>
<path fill="none" stroke="#c0392b" stroke-width="2.2" d="M72.38,-34C100.62,-34 145.48,-34 181.55,-34"/>
<polygon fill="#c0392b" stroke="#c0392b" stroke-width="2.2" points="181.94,-37.5 191.94,-34 181.94,-30.5 181.94,-37.5"/>
<text text-anchor="middle" x="132" y="-37.8" font-family="Times,serif" font-size="14.00">vk cmd encode</text>
</g>
<!-- qemu:virtio&#45;gpu -->
<g id="node11" class="node">
<title>qemu:virtio&#45;gpu</title>
<polygon fill="#e8f6e8" stroke="black" points="1115.72,-144 1057.72,-144 1057.72,-108 1115.72,-108 1115.72,-144"/>
<text text-anchor="middle" x="1086.72" y="-123.5" font-family="Times,serif" font-size="10.00">virtio&#45;gpu</text>
</g>
<!-- seam:ctrlq&#45;&gt;qemu:virtio&#45;gpu -->
<g id="edge8" class="edge">
<title>seam:ctrlq&#45;&gt;qemu:virtio&#45;gpu</title>
<path fill="none" stroke="#c0392b" stroke-width="2.2" d="M936.87,-126C975.96,-126 1017.96,-126 1047.34,-126"/>
<polygon fill="#c0392b" stroke="#c0392b" stroke-width="2.2" points="1047.57,-129.5 1057.57,-126 1047.57,-122.5 1047.57,-129.5"/>
<text text-anchor="middle" x="991.72" y="-129.8" font-family="Times,serif" font-size="14.00">cmd dispatch</text>
</g>
<!-- qemu:virtio&#45;gpu&#45;virgl -->
<g id="node10" class="node">
<title>qemu:virtio&#45;gpu&#45;virgl</title>
<polygon fill="#e8f6e8" stroke="black" points="1126.72,-90 1046.72,-90 1046.72,-54 1126.72,-54 1126.72,-90"/>
<text text-anchor="middle" x="1086.72" y="-69.5" font-family="Times,serif" font-size="10.00">virtio&#45;gpu&#45;virgl</text>
</g>
<!-- seam:venus&#45;ring&#45;&gt;qemu:virtio&#45;gpu&#45;virgl -->
<g id="edge9" class="edge">
<title>seam:venus&#45;ring&#45;&gt;qemu:virtio&#45;gpu&#45;virgl</title>
<path fill="none" stroke="#c0392b" stroke-width="2.2" d="M900.59,-72C943.32,-72 997.43,-72 1036.09,-72"/>
<polygon fill="#c0392b" stroke="#c0392b" stroke-width="2.2" points="1036.56,-75.5 1046.56,-72 1036.56,-68.5 1036.56,-75.5"/>
<text text-anchor="middle" x="991.72" y="-75.8" font-family="Times,serif" font-size="14.00">venus decode</text>
</g>
<!-- qemu:ext:virglrenderer -->
<g id="node9" class="node">
<title>qemu:ext:virglrenderer</title>
<ellipse fill="#e8f6e8" stroke="black" cx="1269.33" cy="-72" rx="40.74" ry="18"/>
<text text-anchor="middle" x="1269.33" y="-69.5" font-family="Times,serif" font-size="10.00">virglrenderer</text>
</g>
<!-- qemu:virtio&#45;gpu&#45;virgl&#45;&gt;qemu:ext:virglrenderer -->
<g id="edge10" class="edge">
<title>qemu:virtio&#45;gpu&#45;virgl&#45;&gt;qemu:ext:virglrenderer</title>
<path fill="none" stroke="#c0392b" stroke-width="2.2" d="M1126.91,-72C1153.7,-72 1189.46,-72 1218.31,-72"/>
<polygon fill="#c0392b" stroke="#c0392b" stroke-width="2.2" points="1218.6,-75.5 1228.6,-72 1218.6,-68.5 1218.6,-75.5"/>
<text text-anchor="middle" x="1177.72" y="-75.8" font-family="Times,serif" font-size="14.00">host Vulkan</text>
</g>
</g>
</svg>
