<?xml version="1.0" encoding="UTF-8" standalone="no"?>
<!DOCTYPE svg PUBLIC "-//W3C//DTD SVG 1.1//EN"
 "http://www.w3.org/Graphics/SVG/1.1/DTD/svg11.dtd">
<!-- Generated by graphviz version 2.43.0 (0)
 -->
<!-- Title: vogue virtio&#45;gpu deps Pages: 1 -->
<svg width="784pt" height="837pt"
 viewBox="0.00 0.00 783.62 837.00" xmlns="http://www.w3.org/2000/svg" xmlns:xlink="http://www.w3.org/1999/xlink">
<g id="graph0" class="graph" transform="scale(1 1) rotate(0) translate(4 833)">
<title>vogue virtio&#45;gpu deps</title>
<polygon fill="white" stroke="transparent" points="-4,4 -4,-833 779.62,-833 779.62,4 -4,4"/>
<text text-anchor="middle" x="387.81" y="-813.8" font-family="Times,serif" font-size="14.00">vogue virtio&#45;gpu deps</text>
<!-- vogue:libukvirtio_gpu -->
<g id="node1" class="node">
<title>vogue:libukvirtio_gpu</title>
<polygon fill="#e2f0fd" stroke="black" points="536.53,-458 454.53,-458 454.53,-422 536.53,-422 536.53,-458"/>
<text text-anchor="middle" x="495.53" y="-437.5" font-family="Times,serif" font-size="10.00">libukvirtio_gpu</text>
</g>
<!-- vogue:ext:LIBUKLOCK -->
<g id="node9" class="node">
<title>vogue:ext:LIBUKLOCK</title>
<ellipse fill="#e2f0fd" stroke="black" cx="707.34" cy="-662" rx="44.3" ry="18"/>
<text text-anchor="middle" x="707.34" y="-659.5" font-family="Times,serif" font-size="10.00">LIBUKLOCK</text>
</g>
<!-- vogue:libukvirtio_gpu&#45;&gt;vogue:ext:LIBUKLOCK -->
<g id="edge15" class="edge">
<title>vogue:libukvirtio_gpu&#45;&gt;vogue:ext:LIBUKLOCK</title>
<path fill="none" stroke="#888888" stroke-dasharray="5,2" d="M508.64,-458.01C531.59,-491.35 584.07,-563.94 639.05,-615 649.45,-624.66 661.95,-633.92 673.33,-641.63"/>
<polygon fill="#888888" stroke="#888888" points="671.49,-644.61 681.76,-647.2 675.35,-638.77 671.49,-644.61"/>
<text text-anchor="middle" x="605.55" y="-596.8" font-family="Times,serif" font-size="14.00">select</text>
</g>
<!-- vogue:ext:VIRTIO_DEVICE -->
<g id="node11" class="node">
<title>vogue:ext:VIRTIO_DEVICE</title>
<ellipse fill="#e2f0fd" stroke="black" cx="707.34" cy="-494" rx="54.31" ry="18"/>
<text text-anchor="middle" x="707.34" y="-491.5" font-family="Times,serif" font-size="10.00">VIRTIO_DEVICE</text>
</g>
<!-- vogue:libukvirtio_gpu&#45;&gt;vogue:ext:VIRTIO_DEVICE -->
<g id="edge11" class="edge">
<title>vogue:libukvirtio_gpu&#45;&gt;vogue:ext:VIRTIO_DEVICE</title>
<path fill="none" stroke="#888888" stroke-dasharray="5,2" d="M536.98,-450.42C570.29,-458.99 617.75,-471.2 653.95,-480.52"/>
<polygon fill="#888888" stroke="#888888" points="653.29,-483.97 663.85,-483.07 655.04,-477.19 653.29,-483.97"/>
<text text-anchor="middle" x="605.55" y="-474.8" font-family="Times,serif" font-size="14.00">select</text>
</g>
<!-- vogue:ext:LIBUKALLOC -->
<g id="node12" class="node">
<title>vogue:ext:LIBUKALLOC</title>
<ellipse fill="#e2f0fd" stroke="black" cx="707.34" cy="-281" rx="47.86" ry="18"/>
<text text-anchor="middle" x="707.34" y="-278.5" font-family="Times,serif" font-size="10.00">LIBUKALLOC</text>
</g>
<!-- vogue:libukvirtio_gpu&#45;&gt;vogue:ext:LIBUKALLOC -->
<g id="edge14" class="edge">
<title>vogue:libukvirtio_gpu&#45;&gt;vogue:ext:LIBUKALLOC</title>
<path fill="none" stroke="#888888" stroke-dasharray="5,2" d="M520.59,-421.76C559.26,-392.46 635.11,-334.98 676.93,-303.29"/>
<polygon fill="#888888" stroke="#888888" points="679.21,-305.95 685.06,-297.12 674.98,-300.38 679.21,-305.95"/>
<text text-anchor="middle" x="605.55" y="-368.8" font-family="Times,serif" font-size="14.00">select</text>
</g>
<!-- vogue:ext:LIBUKSGLIST -->
<g id="node13" class="node">
<title>vogue:ext:LIBUKSGLIST</title>
<ellipse fill="#e2f0fd" stroke="black" cx="707.34" cy="-176" rx="47.19" ry="18"/>
<text text-anchor="middle" x="707.34" y="-173.5" font-family="Times,serif" font-size="10.00">LIBUKSGLIST</text>
</g>
<!-- vogue:libukvirtio_gpu&#45;&gt;vogue:ext:LIBUKSGLIST -->
<g id="edge13" class="edge">
<title>vogue:libukvirtio_gpu&#45;&gt;vogue:ext:LIBUKSGLIST</title>
<path fill="none" stroke="#888888" stroke-dasharray="5,2" d="M509.94,-421.78C534.82,-388.15 590.02,-314.29 639.05,-254 653.71,-235.98 670.83,-216.15 684.13,-201"/>
<polygon fill="#888888" stroke="#888888" points="687.1,-202.93 691.08,-193.11 681.84,-198.3 687.1,-202.93"/>
<text text-anchor="middle" x="605.55" y="-317.8" font-family="Times,serif" font-size="14.00">select</text>
</g>
<!-- vogue:ext:LIBVIRTIO_BUS -->
<g id="node15" class="node">
<title>vogue:ext:LIBVIRTIO_BUS</title>
<ellipse fill="#e2f0fd" stroke="black" cx="707.34" cy="-440" rx="52.96" ry="18"/>
<text text-anchor="middle" x="707.34" y="-437.5" font-family="Times,serif" font-size="10.00">LIBVIRTIO_BUS</text>
</g>
<!-- vogue:libukvirtio_gpu&#45;&gt;vogue:ext:LIBVIRTIO_BUS -->
<g id="edge12" class="edge">
<title>vogue:libukvirtio_gpu&#45;&gt;vogue:ext:LIBVIRTIO_BUS</title>
<path fill="none" stroke="#888888" stroke-dasharray="5,2" d="M536.98,-440C567.33,-440 609.42,-440 644.05,-440"/>
<polygon fill="#888888" stroke="#888888" points="644.07,-443.5 654.07,-440 644.07,-436.5 644.07,-443.5"/>
<text text-anchor="middle" x="605.55" y="-443.8" font-family="Times,serif" font-size="14.00">select</text>
</g>
<!-- vogue:ext:LIBUKLOCK_MUTEX -->
<g id="node16" class="node">
<title>vogue:ext:LIBUKLOCK_MUTEX</title>
<ellipse fill="#e2f0fd" stroke="black" cx="707.34" cy="-588" rx="68.07" ry="18"/>
<text text-anchor="middle" x="707.34" y="-585.5" font-family="Times,serif" font-size="10.00">LIBUKLOCK_MUTEX</text>
</g>
<!-- vogue:libukvirtio_gpu&#45;&gt;vogue:ext:LIBUKLOCK_MUTEX -->
<g id="edge16" class="edge">
<title>vogue:libukvirtio_gpu&#45;&gt;vogue:ext:LIBUKLOCK_MUTEX</title>
<path fill="none" stroke="#888888" stroke-dasharray="5,2" d="M522.25,-458.15C560.46,-485.1 632.17,-535.69 673.92,-565.13"/>
<polygon fill="#888888" stroke="#888888" points="672.16,-568.18 682.35,-571.08 676.19,-562.46 672.16,-568.18"/>
<text text-anchor="middle" x="605.55" y="-530.8" font-family="Times,serif" font-size="14.00">select</text>
</g>
<!-- vogue:ext:LIBUKVIRTIO_GPU -->
<g id="node18" class="node">
<title>vogue:ext:LIBUKVIRTIO_GPU</title>
<ellipse fill="#e2f0fd" stroke="black" cx="707.34" cy="-386" rx="62.3" ry="18"/>
<text text-anchor="middle" x="707.34" y="-383.5" font-family="Times,serif" font-size="10.00">LIBUKVIRTIO_GPU</text>
</g>
<!-- vogue:libukvirtio_gpu&#45;&gt;vogue:ext:LIBUKVIRTIO_GPU -->
<g id="edge10" class="edge">
<title>vogue:libukvirtio_gpu&#45;&gt;vogue:ext:LIBUKVIRTIO_GPU</title>
<path fill="none" stroke="#888888" stroke-dasharray="5,2" d="M536.98,-429.59C569.2,-421.3 614.66,-409.6 650.37,-400.41"/>
<polygon fill="#888888" stroke="#888888" points="651.35,-403.77 660.16,-397.89 649.61,-396.99 651.35,-403.77"/>
<text text-anchor="middle" x="605.55" y="-417.8" font-family="Times,serif" font-size="14.00">select</text>
</g>
<!-- vogue:ext:LIBUKVIRTGPU_DRM -->
<g id="node2" class="node">
<title>vogue:ext:LIBUKVIRTGPU_DRM</title>
<ellipse fill="#e2f0fd" stroke="black" cx="495.53" cy="-604" rx="70.1" ry="18"/>
<text text-anchor="middle" x="495.53" y="-601.5" font-family="Times,serif" font-size="10.00">LIBUKVIRTGPU_DRM</text>
</g>
<!-- vogue:libukgbm_compat -->
<g id="node3" class="node">
<title>vogue:libukgbm_compat</title>
<polygon fill="#e2f0fd" stroke="black" points="401,-152 309,-152 309,-116 401,-116 401,-152"/>
<text text-anchor="middle" x="355" y="-131.5" font-family="Times,serif" font-size="10.00">libukgbm_compat</text>
</g>
<!-- vogue:libukgbm_compat&#45;&gt;vogue:ext:LIBUKSGLIST -->
<g id="edge7" class="edge">
<title>vogue:libukgbm_compat&#45;&gt;vogue:ext:LIBUKSGLIST</title>
<path fill="none" stroke="#888888" stroke-dasharray="5,2" d="M401.3,-134.72C445.15,-135.89 513.42,-138.96 572.05,-147 600.84,-150.95 632.64,-157.71 658.07,-163.71"/>
<polygon fill="#888888" stroke="#888888" points="657.29,-167.13 667.83,-166.05 658.92,-160.32 657.29,-167.13"/>
<text text-anchor="middle" x="495.53" y="-150.8" font-family="Times,serif" font-size="14.00">select</text>
</g>
<!-- vogue:ext:LIBUKVULKAN_VENUS -->
<g id="node4" class="node">
<title>vogue:ext:LIBUKVULKAN_VENUS</title>
<ellipse fill="#e2f0fd" stroke="black" cx="495.53" cy="-659" rx="76.55" ry="18"/>
<text text-anchor="middle" x="495.53" y="-656.5" font-family="Times,serif" font-size="10.00">LIBUKVULKAN_VENUS</text>
</g>
<!-- vogue:libukdrm_compat -->
<g id="node5" class="node">
<title>vogue:libukdrm_compat</title>
<polygon fill="#e2f0fd" stroke="black" points="287.5,-278 198.5,-278 198.5,-242 287.5,-242 287.5,-278"/>
<text text-anchor="middle" x="243" y="-257.5" font-family="Times,serif" font-size="10.00">libukdrm_compat</text>
</g>
<!-- vogue:libukdrm_compat&#45;&gt;vogue:libukvirtio_gpu -->
<g id="edge1" class="edge">
<title>vogue:libukdrm_compat&#45;&gt;vogue:libukvirtio_gpu</title>
<path fill="none" stroke="#888888" stroke-dasharray="5,2" d="M287.54,-257.41C321.22,-257.52 367.58,-262.49 401,-285 446.43,-315.61 473.35,-376.39 485.91,-412.07"/>
<polygon fill="#888888" stroke="#888888" points="482.7,-413.49 489.21,-421.85 489.33,-411.25 482.7,-413.49"/>
<text text-anchor="middle" x="355" y="-288.8" font-family="Times,serif" font-size="14.00">select</text>
</g>
<!-- vogue:libukegl -->
<g id="node6" class="node">
<title>vogue:libukegl</title>
<polygon fill="#e2f0fd" stroke="black" points="55,-194 1,-194 1,-158 55,-158 55,-194"/>
<text text-anchor="middle" x="28" y="-173.5" font-family="Times,serif" font-size="10.00">libukegl</text>
</g>
<!-- vogue:libukegl&#45;&gt;vogue:libukvirtio_gpu -->
<g id="edge2" class="edge">
<title>vogue:libukegl&#45;&gt;vogue:libukvirtio_gpu</title>
<path fill="none" stroke="#888888" stroke-dasharray="5,2" d="M28.75,-194.05C29.35,-226.05 35.47,-292.65 74,-328 80.83,-334.27 392.21,-392.04 401,-395 418.56,-400.92 437.1,-409.35 453,-417.31"/>
<polygon fill="#888888" stroke="#888888" points="451.53,-420.49 462.03,-421.92 454.72,-414.26 451.53,-420.49"/>
<text text-anchor="middle" x="243" y="-375.8" font-family="Times,serif" font-size="14.00">select</text>
</g>
<!-- vogue:libukegl&#45;&gt;vogue:libukvirtio_gpu -->
<g id="edge25" class="edge">
<title>vogue:libukegl&#45;&gt;vogue:libukvirtio_gpu</title>
<path fill="none" stroke="#3b6fb6" d="M32.33,-194.35C37.37,-216.87 49.14,-254.69 74,-276 149.96,-341.14 195.2,-307.1 291,-336 340.25,-350.86 355.2,-348.59 401,-372 424.04,-383.78 447.59,-400.94 465.3,-415.07"/>
<polygon fill="#3b6fb6" stroke="#3b6fb6" points="463.52,-418.14 473.49,-421.73 467.94,-412.71 463.52,-418.14"/>
<text text-anchor="middle" x="243" y="-339.8" font-family="Times,serif" font-size="14.00">uk/virtio_gpu.h</text>
</g>
<!-- vogue:libukegl&#45;&gt;vogue:libukgbm_compat -->
<g id="edge24" class="edge">
<title>vogue:libukegl&#45;&gt;vogue:libukgbm_compat</title>
<path fill="none" stroke="#3b6fb6" d="M52.1,-157.84C58.81,-153.51 66.39,-149.44 74,-147 148.99,-123.03 241.03,-124.17 298.61,-128.25"/>
<polygon fill="#3b6fb6" stroke="#3b6fb6" points="298.37,-131.74 308.6,-129.01 298.9,-124.76 298.37,-131.74"/>
<text text-anchor="middle" x="125.5" y="-150.8" font-family="Times,serif" font-size="14.00">uk/gbm_compat.h</text>
</g>
<!-- vogue:libukegl&#45;&gt;vogue:libukdrm_compat -->
<g id="edge27" class="edge">
<title>vogue:libukegl&#45;&gt;vogue:libukdrm_compat</title>
<path fill="none" stroke="#3b6fb6" d="M40.12,-194.23C48.11,-205.73 59.93,-219.9 74,-228 108.62,-247.96 153.27,-255.77 187.83,-258.7"/>
<polygon fill="#3b6fb6" stroke="#3b6fb6" points="187.99,-262.22 198.22,-259.46 188.5,-255.24 187.99,-262.22"/>
<text text-anchor="middle" x="125.5" y="-260.8" font-family="Times,serif" font-size="14.00">uk/drm_compat.h</text>
</g>
<!-- vogue:libukswrender -->
<g id="node7" class="node">
<title>vogue:libukswrender</title>
<polygon fill="#e2f0fd" stroke="black" points="280.5,-102 205.5,-102 205.5,-66 280.5,-66 280.5,-102"/>
<text text-anchor="middle" x="243" y="-81.5" font-family="Times,serif" font-size="10.00">libukswrender</text>
</g>
<!-- vogue:libukegl&#45;&gt;vogue:libukswrender -->
<g id="edge5" class="edge">
<title>vogue:libukegl&#45;&gt;vogue:libukswrender</title>
<path fill="none" stroke="#888888" stroke-dasharray="5,2" d="M30.5,-157.88C33.68,-132.55 43.54,-87.38 74,-67 109.63,-43.16 159.38,-52.11 195.49,-64.16"/>
<polygon fill="#888888" stroke="#888888" points="194.7,-67.6 205.29,-67.62 197.02,-60.99 194.7,-67.6"/>
<text text-anchor="middle" x="125.5" y="-70.8" font-family="Times,serif" font-size="14.00">select</text>
</g>
<!-- vogue:libukegl&#45;&gt;vogue:libukswrender -->
<g id="edge26" class="edge">
<title>vogue:libukegl&#45;&gt;vogue:libukswrender</title>
<path fill="none" stroke="#3b6fb6" d="M35.3,-157.87C42.11,-141.2 54.65,-117.27 74,-105 93.55,-92.61 152.64,-87.52 195.22,-85.43"/>
<polygon fill="#3b6fb6" stroke="#3b6fb6" points="195.55,-88.92 205.38,-84.98 195.23,-81.93 195.55,-88.92"/>
<text text-anchor="middle" x="125.5" y="-108.8" font-family="Times,serif" font-size="14.00">uk/swrender.h</text>
</g>
<!-- vogue:libukegl&#45;&gt;vogue:ext:LIBUKALLOC -->
<g id="edge4" class="edge">
<title>vogue:libukegl&#45;&gt;vogue:ext:LIBUKALLOC</title>
<path fill="none" stroke="#888888" stroke-dasharray="5,2" d="M55.46,-185C61.5,-186.84 67.93,-188.63 74,-190 102.19,-196.38 503.9,-252.73 652.01,-273.42"/>
<polygon fill="#888888" stroke="#888888" points="651.84,-276.93 662.23,-274.85 652.81,-270 651.84,-276.93"/>
<text text-anchor="middle" x="355" y="-241.8" font-family="Times,serif" font-size="14.00">select</text>
</g>
<!-- vogue:libukegl&#45;&gt;vogue:ext:LIBUKSGLIST -->
<g id="edge3" class="edge">
<title>vogue:libukegl&#45;&gt;vogue:ext:LIBUKSGLIST</title>
<path fill="none" stroke="#888888" stroke-dasharray="5,2" d="M55.14,-176C154.64,-176 511.14,-176 650.21,-176"/>
<polygon fill="#888888" stroke="#888888" points="650.24,-179.5 660.24,-176 650.24,-172.5 650.24,-179.5"/>
<text text-anchor="middle" x="355" y="-179.8" font-family="Times,serif" font-size="14.00">select</text>
</g>
<!-- vogue:ext:LIBMUSL -->
<g id="node14" class="node">
<title>vogue:ext:LIBMUSL</title>
<ellipse fill="#e2f0fd" stroke="black" cx="495.53" cy="-54" rx="35.14" ry="18"/>
<text text-anchor="middle" x="495.53" y="-51.5" font-family="Times,serif" font-size="10.00">LIBMUSL</text>
</g>
<!-- vogue:libukegl&#45;&gt;vogue:ext:LIBMUSL -->
<g id="edge6" class="edge">
<title>vogue:libukegl&#45;&gt;vogue:ext:LIBMUSL</title>
<path fill="none" stroke="#888888" stroke-dasharray="5,2" d="M29.51,-157.65C31.39,-129.15 39.58,-74.85 74,-49 189.62,37.81 378,-12.68 457.39,-40"/>
<polygon fill="#888888" stroke="#888888" points="456.37,-43.35 466.96,-43.36 458.69,-36.74 456.37,-43.35"/>
<text text-anchor="middle" x="243" y="-6.8" font-family="Times,serif" font-size="14.00">select</text>
</g>
<!-- vogue:libukswrender&#45;&gt;vogue:ext:LIBMUSL -->
<g id="edge8" class="edge">
<title>vogue:libukswrender&#45;&gt;vogue:ext:LIBMUSL</title>
<path fill="none" stroke="#888888" stroke-dasharray="5,2" d="M280.7,-79.61C325.9,-74.2 402.61,-65.01 450.81,-59.24"/>
<polygon fill="#888888" stroke="#888888" points="451.43,-62.69 460.94,-58.03 450.6,-55.74 451.43,-62.69"/>
<text text-anchor="middle" x="355" y="-79.8" font-family="Times,serif" font-size="14.00">select</text>
</g>
<!-- vogue:libukvirtgpu_drm -->
<g id="node8" class="node">
<title>vogue:libukvirtgpu_drm</title>
<polygon fill="#e2f0fd" stroke="black" points="287.5,-434 198.5,-434 198.5,-398 287.5,-398 287.5,-434"/>
<text text-anchor="middle" x="243" y="-413.5" font-family="Times,serif" font-size="10.00">libukvirtgpu_drm</text>
</g>
<!-- vogue:libukvirtgpu_drm&#45;&gt;vogue:libukvirtio_gpu -->
<g id="edge9" class="edge">
<title>vogue:libukvirtgpu_drm&#45;&gt;vogue:libukvirtio_gpu</title>
<path fill="none" stroke="#888888" stroke-dasharray="5,2" d="M287.65,-406.12C319.34,-400.46 363.12,-395.78 401,-403 417.04,-406.06 433.84,-411.82 448.71,-417.9"/>
<polygon fill="#888888" stroke="#888888" points="447.6,-421.23 458.17,-421.92 450.33,-414.79 447.6,-421.23"/>
<text text-anchor="middle" x="355" y="-406.8" font-family="Times,serif" font-size="14.00">select</text>
</g>
<!-- vogue:libukvirtgpu_drm&#45;&gt;vogue:libukvirtio_gpu -->
<g id="edge28" class="edge">
<title>vogue:libukvirtgpu_drm&#45;&gt;vogue:libukvirtio_gpu</title>
<path fill="none" stroke="#3b6fb6" d="M287.64,-420.18C331.3,-424.37 398.4,-430.79 444.26,-435.19"/>
<polygon fill="#3b6fb6" stroke="#3b6fb6" points="444,-438.68 454.28,-436.15 444.66,-431.71 444,-438.68"/>
<text text-anchor="middle" x="355" y="-433.8" font-family="Times,serif" font-size="14.00">uk/virtio_gpu.h</text>
</g>
<!-- vogue:libukvulkan_venus -->
<g id="node10" class="node">
<title>vogue:libukvulkan_venus</title>
<polygon fill="#e2f0fd" stroke="black" points="291,-622 195,-622 195,-586 291,-586 291,-622"/>
<text text-anchor="middle" x="243" y="-601.5" font-family="Times,serif" font-size="10.00">libukvulkan_venus</text>
</g>
<!-- vogue:libukvulkan_venus&#45;&gt;vogue:libukvirtio_gpu -->
<g id="edge17" class="edge">
<title>vogue:libukvulkan_venus&#45;&gt;vogue:libukvirtio_gpu</title>
<path fill="none" stroke="#888888" stroke-dasharray="5,2" d="M291.24,-588.69C330.46,-575.48 382.66,-556.6 401,-544 431.71,-522.92 459.2,-489.76 476.3,-466.57"/>
<polygon fill="#888888" stroke="#888888" points="479.31,-468.37 482.33,-458.21 473.64,-464.27 479.31,-468.37"/>
<text text-anchor="middle" x="355" y="-584.8" font-family="Times,serif" font-size="14.00">select</text>
</g>
<!-- vogue:libukvulkan_venus&#45;&gt;vogue:libukvirtio_gpu -->
<g id="edge29" class="edge">
<title>vogue:libukvulkan_venus&#45;&gt;vogue:libukvirtio_gpu</title>
<path fill="none" stroke="#3b6fb6" d="M256.7,-585.89C271.65,-565.08 296.07,-532.8 309,-525 344.75,-503.43 362.69,-522.61 401,-506 424.66,-495.75 448.37,-478.93 465.99,-464.84"/>
<polygon fill="#3b6fb6" stroke="#3b6fb6" points="468.6,-467.22 474.13,-458.18 464.17,-461.8 468.6,-467.22"/>
<text text-anchor="middle" x="355" y="-528.8" font-family="Times,serif" font-size="14.00">uk/virtio_gpu.h</text>
</g>
<!-- vogue:libukvulkan_venus&#45;&gt;vogue:ext:LIBUKVIRTGPU_DRM -->
<g id="edge19" class="edge">
<title>vogue:libukvulkan_venus&#45;&gt;vogue:ext:LIBUKVIRTGPU_DRM</title>
<path fill="none" stroke="#888888" stroke-dasharray="5,2" d="M291.12,-604C326.01,-604 374.36,-604 415.17,-604"/>
<polygon fill="#888888" stroke="#888888" points="415.37,-607.5 425.37,-604 415.37,-600.5 415.37,-607.5"/>
<text text-anchor="middle" x="355" y="-607.8" font-family="Times,serif" font-size="14.00">select</text>
</g>
<!-- vogue:libukvulkan_venus&#45;&gt;vogue:ext:LIBUKVULKAN_VENUS -->
<g id="edge18" class="edge">
<title>vogue:libukvulkan_venus&#45;&gt;vogue:ext:LIBUKVULKAN_VENUS</title>
<path fill="none" stroke="#888888" stroke-dasharray="5,2" d="M291.17,-615.82C297.17,-617.26 303.22,-618.69 309,-620 347.84,-628.86 391.44,-638.07 426.6,-645.3"/>
<polygon fill="#888888" stroke="#888888" points="426.25,-648.81 436.75,-647.39 427.66,-641.95 426.25,-648.81"/>
<text text-anchor="middle" x="355" y="-642.8" font-family="Times,serif" font-size="14.00">select</text>
</g>
<!-- vogue:libvulkan -->
<g id="node17" class="node">
<title>vogue:libvulkan</title>
<polygon fill="#e2f0fd" stroke="black" points="56,-665 0,-665 0,-629 56,-629 56,-665"/>
<text text-anchor="middle" x="28" y="-644.5" font-family="Times,serif" font-size="10.00">libvulkan</text>
</g>
<!-- vogue:libvulkan&#45;&gt;vogue:libukvirtio_gpu -->
<g id="edge21" class="edge">
<title>vogue:libvulkan&#45;&gt;vogue:libukvirtio_gpu</title>
<path fill="none" stroke="#888888" stroke-dasharray="5,2" d="M48.18,-628.62C55.82,-621.9 64.94,-614.58 74,-609 170.66,-549.5 202.33,-547.81 309,-509 349.17,-494.39 360.91,-495.83 401,-481 416,-475.45 432.05,-468.72 446.54,-462.33"/>
<polygon fill="#888888" stroke="#888888" points="448.1,-465.47 455.81,-458.2 445.25,-459.07 448.1,-465.47"/>
<text text-anchor="middle" x="243" y="-550.8" font-family="Times,serif" font-size="14.00">select</text>
</g>
<!-- vogue:libvulkan&#45;&gt;vogue:libukvirtio_gpu -->
<g id="edge30" class="edge">
<title>vogue:libvulkan&#45;&gt;vogue:libukvirtio_gpu</title>
<path fill="none" stroke="#3b6fb6" d="M33.37,-628.83C39.3,-607.65 51.8,-572.8 74,-551 116.03,-509.75 138.81,-514.63 195,-497 280.47,-470.2 383.81,-453.93 444.06,-445.97"/>
<polygon fill="#3b6fb6" stroke="#3b6fb6" points="444.6,-449.43 454.07,-444.68 443.7,-442.49 444.6,-449.43"/>
<text text-anchor="middle" x="243" y="-500.8" font-family="Times,serif" font-size="14.00">uk/virtio_gpu.h</text>
</g>
<!-- vogue:libvulkan&#45;&gt;vogue:ext:LIBUKVULKAN_VENUS -->
<g id="edge20" class="edge">
<title>vogue:libvulkan&#45;&gt;vogue:ext:LIBUKVULKAN_VENUS</title>
<path fill="none" stroke="#888888" stroke-dasharray="5,2" d="M56.02,-648.37C105.96,-650.83 216.1,-655.93 309,-658 341.54,-658.73 377.31,-659.04 408.67,-659.15"/>
<polygon fill="#888888" stroke="#888888" points="408.69,-662.65 418.7,-659.18 408.71,-655.65 408.69,-662.65"/>
<text text-anchor="middle" x="243" y="-660.8" font-family="Times,serif" font-size="14.00">select</text>
</g>
<!-- vogue:libvulkan&#45;&gt;vogue:ext:LIBUKLOCK -->
<g id="edge22" class="edge">
<title>vogue:libvulkan&#45;&gt;vogue:ext:LIBUKLOCK</title>
<path fill="none" stroke="#888888" stroke-dasharray="5,2" d="M34.68,-665.25C41.14,-682.55 53.55,-707.56 74,-719 286.15,-837.77 388.71,-790.65 621.05,-719 643.23,-712.17 664.92,-697.52 680.88,-684.79"/>
<polygon fill="#888888" stroke="#888888" points="683.19,-687.43 688.67,-678.36 678.73,-682.03 683.19,-687.43"/>
<text text-anchor="middle" x="355" y="-794.8" font-family="Times,serif" font-size="14.00">select</text>
</g>
<!-- vogue:libvulkan&#45;&gt;vogue:libukvulkan_venus -->
<g id="edge31" class="edge">
<title>vogue:libvulkan&#45;&gt;vogue:libukvulkan_venus</title>
<path fill="none" stroke="#3b6fb6" d="M56.45,-637.84C62.21,-636.09 68.27,-634.38 74,-633 110.48,-624.22 152.03,-617.02 184.68,-612"/>
<polygon fill="#3b6fb6" stroke="#3b6fb6" points="185.59,-615.4 194.95,-610.44 184.54,-608.48 185.59,-615.4"/>
<text text-anchor="middle" x="125.5" y="-636.8" font-family="Times,serif" font-size="14.00">uk/vulkan_venus.h</text>
</g>
<!-- vogue:libvulkan&#45;&gt;vogue:ext:LIBUKLOCK_MUTEX -->
<g id="edge23" class="edge">
<title>vogue:libvulkan&#45;&gt;vogue:ext:LIBUKLOCK_MUTEX</title>
<path fill="none" stroke="#888888" stroke-dasharray="5,2" d="M56.19,-659.34C61.97,-661.55 68.11,-663.59 74,-665 126.51,-677.61 141.12,-672.35 195,-676 362.25,-687.33 413.21,-739.58 572.05,-686 607.51,-674.04 608.82,-657.06 639.05,-635 650.13,-626.92 662.4,-618.27 673.38,-610.62"/>
<polygon fill="#888888" stroke="#888888" points="675.65,-613.31 681.88,-604.73 671.66,-607.56 675.65,-613.31"/>
<text text-anchor="middle" x="355" y="-709.8" font-family="Times,serif" font-size="14.00">select</text>
</g>
</g>
</svg>
